<svg width="413.00000000000006" height="318.99999999999994" xmlns="http://www.w3.org/2000/svg">
 <!-- Created with Method Draw - http://github.com/duopixel/Method-Draw/ -->

 <g>
  <title>background</title>
  <rect fill="#fff" id="canvas_background" height="321" width="415" y="-1" x="-1"/>
  <g display="none" overflow="visible" y="0" x="0" height="100%" width="100%" id="canvasGrid">
   <rect fill="url(#gridpattern)" stroke-width="0" y="1" x="1" height="400" width="582"/>
  </g>
 </g>
 <g>
  <title>Layer 1</title>
  <g stroke="null" id="svg_5">
   <path stroke="null" id="svg_4" d="m33.411426,1.000006a32.411459,31.870592 0 1 0 32.411459,31.870592a32.411459,31.870592 0 0 0 -32.411459,-31.870592zm0,106.235306a32.411459,31.870592 0 1 0 32.411459,31.870592a32.411459,31.870592 0 0 0 -32.411459,-31.870592zm0,106.235306a32.411459,31.870592 0 1 0 32.411459,31.870592a32.411459,31.870592 0 0 0 -32.411459,-31.870592zm302.506947,10.623531l-216.076391,0a10.80382,10.623531 0 0 0 -10.80382,10.623531l0,21.247061a10.80382,10.623531 0 0 0 10.80382,10.623531l216.076391,0a10.80382,10.623531 0 0 0 10.80382,-10.623531l0,-21.247061a10.80382,10.623531 0 0 0 -10.80382,-10.623531zm0,-212.470612l-216.076391,0a10.80382,10.623531 0 0 0 -10.80382,10.623531l0,21.247061a10.80382,10.623531 0 0 0 10.80382,10.623531l216.076391,0a10.80382,10.623531 0 0 0 10.80382,-10.623531l0,-21.247061a10.80382,10.623531 0 0 0 -10.80382,-10.623531zm0,106.235306l-216.076391,0a10.80382,10.623531 0 0 0 -10.80382,10.623531l0,21.247061a10.80382,10.623531 0 0 0 10.80382,10.623531l216.076391,0a10.80382,10.623531 0 0 0 10.80382,-10.623531l0,-21.247061a10.80382,10.623531 0 0 0 -10.80382,-10.623531z" fill="currentColor"/>
  </g>
  <ellipse stroke="#000" ry="101.000002" rx="100.000004" id="svg_6" cy="209.000002" cx="319.500004" stroke-width="0" fill="#fff"/>
  <g stroke="null" id="svg_16">
   <path stroke="null" id="svg_15" d="m297.818577,85.999994c-62.32317,0 -112.818585,51.390574 -112.818585,114.81858s50.495415,114.81858 112.818585,114.81858s112.818585,-51.390574 112.818585,-114.81858s-50.495415,-114.81858 -112.818585,-114.81858zm65.507565,127.781968c0,3.055656 -2.456534,5.555738 -5.458964,5.555738l-41.852056,0l0,42.593989c0,3.055656 -2.456534,5.555738 -5.458964,5.555738l-25.475164,0c-3.00243,0 -5.458964,-2.500082 -5.458964,-5.555738l0,-42.593989l-41.852056,0c-3.00243,0 -5.458964,-2.500082 -5.458964,-5.555738l0,-25.926776c0,-3.055656 2.456534,-5.555738 5.458964,-5.555738l41.852056,0l0,-42.593989c0,-3.055656 2.456534,-5.555738 5.458964,-5.555738l25.475164,0c3.00243,0 5.458964,2.500082 5.458964,5.555738l0,42.593989l41.852056,0c3.00243,0 5.458964,2.500082 5.458964,5.555738l0,25.926776z" fill="currentColor"/>
  </g>
 </g>
</svg>