<svg width="413.00000000000006" height="318.99999999999994" xmlns="http://www.w3.org/2000/svg">
 <!-- Created with Method Draw - http://github.com/duopixel/Method-Draw/ -->

 <g>
  <title>background</title>
  <rect fill="#fff" id="canvas_background" height="321" width="415" y="-1" x="-1"/>
  <g display="none" overflow="visible" y="0" x="0" height="100%" width="100%" id="canvasGrid">
   <rect fill="url(#gridpattern)" stroke-width="0" y="1" x="1" height="400" width="582"/>
  </g>
 </g>
 <g>
  <title>Layer 1</title>
  <g stroke="null" id="svg_5">
   <path stroke="null" id="svg_4" d="m33.411426,1.000006a32.411459,31.870592 0 1 0 32.411459,31.870592a32.411459,31.870592 0 0 0 -32.411459,-31.870592zm0,106.235306a32.411459,31.870592 0 1 0 32.411459,31.870592a32.411459,31.870592 0 0 0 -32.411459,-31.870592zm0,106.235306a32.411459,31.870592 0 1 0 32.411459,31.870592a32.411459,31.870592 0 0 0 -32.411459,-31.870592zm302.506947,10.623531l-216.076391,0a10.80382,10.623531 0 0 0 -10.80382,10.623531l0,21.247061a10.80382,10.623531 0 0 0 10.80382,10.623531l216.076391,0a10.80382,10.623531 0 0 0 10.80382,-10.623531l0,-21.247061a10.80382,10.623531 0 0 0 -10.80382,-10.623531zm0,-212.470612l-216.076391,0a10.80382,10.623531 0 0 0 -10.80382,10.623531l0,21.247061a10.80382,10.623531 0 0 0 10.80382,10.623531l216.076391,0a10.80382,10.623531 0 0 0 10.80382,-10.623531l0,-21.247061a10.80382,10.623531 0 0 0 -10.80382,-10.623531zm0,106.235306l-216.076391,0a10.80382,10.623531 0 0 0 -10.80382,10.623531l0,21.247061a10.80382,10.623531 0 0 0 10.80382,10.623531l216.076391,0a10.80382,10.623531 0 0 0 10.80382,-10.623531l0,-21.247061a10.80382,10.623531 0 0 0 -10.80382,-10.623531z" fill="currentColor"/>
  </g>
  <ellipse stroke="#000" style="vector-effect: non-scaling-stroke;" ry="101.000002" rx="100.000004" id="svg_6" cy="209.000002" cx="319.500004" stroke-width="0" fill="#fff"/>
  <g stroke="null" id="svg_11">
   <path stroke="null" id="svg_10" d="m411.999987,201.181406c0,63.412729 -50.734285,114.818582 -113.318588,114.818582s-113.318588,-51.405853 -113.318588,-114.818582s50.734285,-114.818582 113.318588,-114.818582s113.318588,51.405853 113.318588,114.818582zm-126.426076,60.795513l84.075081,-85.18798c2.854897,-2.892687 2.854897,-7.583119 0,-10.475807l-10.33895,-10.475807c-2.854897,-2.89315 -7.484053,-2.89315 -10.339407,0l-68.566427,69.473576l-32.012044,-32.435786c-2.854897,-2.892687 -7.484053,-2.892687 -10.339407,0l-10.33895,10.475807c-2.854897,2.892687 -2.854897,7.583119 0,10.475807l47.520698,48.149728c2.855354,2.89315 7.484053,2.89315 10.339407,0.000463z" fill="currentColor"/>
  </g>
 </g>
</svg>